<?xml version="1.0" encoding="UTF-8" standalone="no"?>
<!DOCTYPE svg PUBLIC "-//W3C//DTD SVG 1.1//EN"
 "http://www.w3.org/Graphics/SVG/1.1/DTD/svg11.dtd">
<!-- Generated by graphviz version 2.44.0 (20200408.0750)
 -->
<!-- Pages: 1 -->
<svg width="1017pt" height="404pt"
 viewBox="0.00 0.00 1016.50 404.00" xmlns="http://www.w3.org/2000/svg" xmlns:xlink="http://www.w3.org/1999/xlink">
<g id="graph0" class="graph" transform="scale(1 1) rotate(0) translate(4 400)">
<polygon fill="white" stroke="transparent" points="-4,4 -4,-400 1012.5,-400 1012.5,4 -4,4"/>
<!-- [root] aws_instance.secondserver -->
<g id="node1" class="node">
<title>[root] aws_instance.secondserver</title>
<polygon fill="none" stroke="black" points="163,-252 0,-252 0,-216 163,-216 163,-252"/>
<text text-anchor="middle" x="81.5" y="-230.3" font-family="Times,serif" font-size="14.00">aws_instance.secondserver</text>
</g>
<!-- [root] aws_subnet.subnet2 -->
<g id="node4" class="node">
<title>[root] aws_subnet.subnet2</title>
<polygon fill="none" stroke="black" points="244,-180 119,-180 119,-144 244,-144 244,-180"/>
<text text-anchor="middle" x="181.5" y="-158.3" font-family="Times,serif" font-size="14.00">aws_subnet.subnet2</text>
</g>
<!-- [root] aws_instance.secondserver&#45;&gt;[root] aws_subnet.subnet2 -->
<g id="edge1" class="edge">
<title>[root] aws_instance.secondserver&#45;&gt;[root] aws_subnet.subnet2</title>
<path fill="none" stroke="black" d="M105.96,-215.88C118.8,-206.89 134.7,-195.76 148.59,-186.03"/>
<polygon fill="black" stroke="black" points="150.76,-188.79 156.94,-180.19 146.74,-183.06 150.76,-188.79"/>
</g>
<!-- [root] data.aws_ami.ubuntu -->
<g id="node6" class="node">
<title>[root] data.aws_ami.ubuntu</title>
<polygon fill="none" stroke="black" points="152,-108 19,-108 19,-72 152,-72 152,-108"/>
<text text-anchor="middle" x="85.5" y="-86.3" font-family="Times,serif" font-size="14.00">data.aws_ami.ubuntu</text>
</g>
<!-- [root] aws_instance.secondserver&#45;&gt;[root] data.aws_ami.ubuntu -->
<g id="edge2" class="edge">
<title>[root] aws_instance.secondserver&#45;&gt;[root] data.aws_ami.ubuntu</title>
<path fill="none" stroke="black" d="M81.98,-215.87C82.66,-191.67 83.92,-147.21 84.73,-118.39"/>
<polygon fill="black" stroke="black" points="88.23,-118.28 85.02,-108.19 81.24,-118.09 88.23,-118.28"/>
</g>
<!-- [root] aws_security_group.subnetsecurity -->
<g id="node2" class="node">
<title>[root] aws_security_group.subnetsecurity</title>
<polygon fill="none" stroke="black" points="388,-252 181,-252 181,-216 388,-216 388,-252"/>
<text text-anchor="middle" x="284.5" y="-230.3" font-family="Times,serif" font-size="14.00">aws_security_group.subnetsecurity</text>
</g>
<!-- [root] aws_vpc.environment&#45;example&#45;two -->
<g id="node5" class="node">
<title>[root] aws_vpc.environment&#45;example&#45;two</title>
<polygon fill="none" stroke="black" points="383.5,-108 171.5,-108 171.5,-72 383.5,-72 383.5,-108"/>
<text text-anchor="middle" x="277.5" y="-86.3" font-family="Times,serif" font-size="14.00">aws_vpc.environment&#45;example&#45;two</text>
</g>
<!-- [root] aws_security_group.subnetsecurity&#45;&gt;[root] aws_vpc.environment&#45;example&#45;two -->
<g id="edge3" class="edge">
<title>[root] aws_security_group.subnetsecurity&#45;&gt;[root] aws_vpc.environment&#45;example&#45;two</title>
<path fill="none" stroke="black" d="M283.66,-215.87C282.46,-191.67 280.27,-147.21 278.85,-118.39"/>
<polygon fill="black" stroke="black" points="282.34,-118 278.35,-108.19 275.34,-118.35 282.34,-118"/>
</g>
<!-- [root] aws_subnet.subnet1 -->
<g id="node3" class="node">
<title>[root] aws_subnet.subnet1</title>
<polygon fill="none" stroke="black" points="531,-252 406,-252 406,-216 531,-216 531,-252"/>
<text text-anchor="middle" x="468.5" y="-230.3" font-family="Times,serif" font-size="14.00">aws_subnet.subnet1</text>
</g>
<!-- [root] aws_subnet.subnet1&#45;&gt;[root] aws_vpc.environment&#45;example&#45;two -->
<g id="edge4" class="edge">
<title>[root] aws_subnet.subnet1&#45;&gt;[root] aws_vpc.environment&#45;example&#45;two</title>
<path fill="none" stroke="black" d="M445.46,-215.87C411.33,-190.5 347.25,-142.85 308.86,-114.32"/>
<polygon fill="black" stroke="black" points="310.73,-111.35 300.62,-108.19 306.56,-116.96 310.73,-111.35"/>
</g>
<!-- [root] aws_subnet.subnet2&#45;&gt;[root] aws_vpc.environment&#45;example&#45;two -->
<g id="edge5" class="edge">
<title>[root] aws_subnet.subnet2&#45;&gt;[root] aws_vpc.environment&#45;example&#45;two</title>
<path fill="none" stroke="black" d="M205.23,-143.7C217.44,-134.8 232.49,-123.82 245.68,-114.2"/>
<polygon fill="black" stroke="black" points="248.02,-116.82 254.04,-108.1 243.9,-111.17 248.02,-116.82"/>
</g>
<!-- [root] provider.aws -->
<g id="node11" class="node">
<title>[root] provider.aws</title>
<polygon fill="none" stroke="black" points="181.5,-36 102.4,-18 181.5,0 260.6,-18 181.5,-36"/>
<text text-anchor="middle" x="181.5" y="-14.3" font-family="Times,serif" font-size="14.00">provider.aws</text>
</g>
<!-- [root] aws_vpc.environment&#45;example&#45;two&#45;&gt;[root] provider.aws -->
<g id="edge6" class="edge">
<title>[root] aws_vpc.environment&#45;example&#45;two&#45;&gt;[root] provider.aws</title>
<path fill="none" stroke="black" d="M253.77,-71.7C239.88,-61.57 222.32,-48.76 207.98,-38.31"/>
<polygon fill="black" stroke="black" points="209.68,-35.22 199.54,-32.15 205.56,-40.87 209.68,-35.22"/>
</g>
<!-- [root] data.aws_ami.ubuntu&#45;&gt;[root] provider.aws -->
<g id="edge7" class="edge">
<title>[root] data.aws_ami.ubuntu&#45;&gt;[root] provider.aws</title>
<path fill="none" stroke="black" d="M109.23,-71.7C123.12,-61.57 140.68,-48.76 155.02,-38.31"/>
<polygon fill="black" stroke="black" points="157.44,-40.87 163.46,-32.15 153.32,-35.22 157.44,-40.87"/>
</g>
<!-- [root] google_compute_instance.firstserver -->
<g id="node7" class="node">
<title>[root] google_compute_instance.firstserver</title>
<polygon fill="none" stroke="black" points="972.5,-252 756.5,-252 756.5,-216 972.5,-216 972.5,-252"/>
<text text-anchor="middle" x="864.5" y="-230.3" font-family="Times,serif" font-size="14.00">google_compute_instance.firstserver</text>
</g>
<!-- [root] google_compute_subnetwork.dev_subnet -->
<g id="node9" class="node">
<title>[root] google_compute_subnetwork.dev_subnet</title>
<polygon fill="none" stroke="black" points="980.5,-180 738.5,-180 738.5,-144 980.5,-144 980.5,-180"/>
<text text-anchor="middle" x="859.5" y="-158.3" font-family="Times,serif" font-size="14.00">google_compute_subnetwork.dev_subnet</text>
</g>
<!-- [root] google_compute_instance.firstserver&#45;&gt;[root] google_compute_subnetwork.dev_subnet -->
<g id="edge8" class="edge">
<title>[root] google_compute_instance.firstserver&#45;&gt;[root] google_compute_subnetwork.dev_subnet</title>
<path fill="none" stroke="black" d="M863.26,-215.7C862.71,-207.98 862.05,-198.71 861.44,-190.11"/>
<polygon fill="black" stroke="black" points="864.93,-189.83 860.72,-180.1 857.94,-190.33 864.93,-189.83"/>
</g>
<!-- [root] google_compute_network.our_development_network -->
<g id="node8" class="node">
<title>[root] google_compute_network.our_development_network</title>
<polygon fill="none" stroke="black" points="1008.5,-108 700.5,-108 700.5,-72 1008.5,-72 1008.5,-108"/>
<text text-anchor="middle" x="854.5" y="-86.3" font-family="Times,serif" font-size="14.00">google_compute_network.our_development_network</text>
</g>
<!-- [root] provider.google -->
<g id="node12" class="node">
<title>[root] provider.google</title>
<polygon fill="none" stroke="black" points="753.5,-36 659.99,-18 753.5,0 847.01,-18 753.5,-36"/>
<text text-anchor="middle" x="753.5" y="-14.3" font-family="Times,serif" font-size="14.00">provider.google</text>
</g>
<!-- [root] google_compute_network.our_development_network&#45;&gt;[root] provider.google -->
<g id="edge9" class="edge">
<title>[root] google_compute_network.our_development_network&#45;&gt;[root] provider.google</title>
<path fill="none" stroke="black" d="M829.79,-71.88C815.15,-61.73 796.54,-48.83 781.38,-38.32"/>
<polygon fill="black" stroke="black" points="783.11,-35.26 772.9,-32.44 779.12,-41.02 783.11,-35.26"/>
</g>
<!-- [root] google_compute_subnetwork.dev_subnet&#45;&gt;[root] google_compute_network.our_development_network -->
<g id="edge10" class="edge">
<title>[root] google_compute_subnetwork.dev_subnet&#45;&gt;[root] google_compute_network.our_development_network</title>
<path fill="none" stroke="black" d="M858.26,-143.7C857.71,-135.98 857.05,-126.71 856.44,-118.11"/>
<polygon fill="black" stroke="black" points="859.93,-117.83 855.72,-108.1 852.94,-118.33 859.93,-117.83"/>
</g>
<!-- [root] google_container_cluster.kubey -->
<g id="node10" class="node">
<title>[root] google_container_cluster.kubey</title>
<polygon fill="none" stroke="black" points="738,-252 549,-252 549,-216 738,-216 738,-252"/>
<text text-anchor="middle" x="643.5" y="-230.3" font-family="Times,serif" font-size="14.00">google_container_cluster.kubey</text>
</g>
<!-- [root] google_container_cluster.kubey&#45;&gt;[root] provider.google -->
<g id="edge11" class="edge">
<title>[root] google_container_cluster.kubey&#45;&gt;[root] provider.google</title>
<path fill="none" stroke="black" d="M645.4,-215.68C649.48,-184.64 661.29,-118.46 691.5,-72 700.01,-58.91 712.69,-47.27 724.37,-38.25"/>
<polygon fill="black" stroke="black" points="726.65,-40.92 732.62,-32.17 722.49,-35.28 726.65,-40.92"/>
</g>
<!-- [root] meta.count&#45;boundary (EachMode fixup) -->
<g id="node13" class="node">
<title>[root] meta.count&#45;boundary (EachMode fixup)</title>
<ellipse fill="none" stroke="black" cx="511.5" cy="-306" rx="176.27" ry="18"/>
<text text-anchor="middle" x="511.5" y="-302.3" font-family="Times,serif" font-size="14.00">[root] meta.count&#45;boundary (EachMode fixup)</text>
</g>
<!-- [root] meta.count&#45;boundary (EachMode fixup)&#45;&gt;[root] aws_instance.secondserver -->
<g id="edge12" class="edge">
<title>[root] meta.count&#45;boundary (EachMode fixup)&#45;&gt;[root] aws_instance.secondserver</title>
<path fill="none" stroke="black" d="M415.37,-290.86C349.74,-281 260.54,-267.22 173.45,-252.31"/>
<polygon fill="black" stroke="black" points="173.84,-248.83 163.4,-250.58 172.66,-255.73 173.84,-248.83"/>
</g>
<!-- [root] meta.count&#45;boundary (EachMode fixup)&#45;&gt;[root] aws_security_group.subnetsecurity -->
<g id="edge13" class="edge">
<title>[root] meta.count&#45;boundary (EachMode fixup)&#45;&gt;[root] aws_security_group.subnetsecurity</title>
<path fill="none" stroke="black" d="M458.85,-288.76C426.17,-278.69 383.93,-265.66 349.21,-254.95"/>
<polygon fill="black" stroke="black" points="350.22,-251.6 339.63,-252 348.16,-258.29 350.22,-251.6"/>
</g>
<!-- [root] meta.count&#45;boundary (EachMode fixup)&#45;&gt;[root] aws_subnet.subnet1 -->
<g id="edge14" class="edge">
<title>[root] meta.count&#45;boundary (EachMode fixup)&#45;&gt;[root] aws_subnet.subnet1</title>
<path fill="none" stroke="black" d="M500.87,-287.7C495.87,-279.56 489.81,-269.69 484.29,-260.7"/>
<polygon fill="black" stroke="black" points="487.22,-258.79 479.01,-252.1 481.26,-262.46 487.22,-258.79"/>
</g>
<!-- [root] meta.count&#45;boundary (EachMode fixup)&#45;&gt;[root] google_compute_instance.firstserver -->
<g id="edge15" class="edge">
<title>[root] meta.count&#45;boundary (EachMode fixup)&#45;&gt;[root] google_compute_instance.firstserver</title>
<path fill="none" stroke="black" d="M588.53,-289.72C641.45,-279.23 712.07,-265.23 768.63,-254.01"/>
<polygon fill="black" stroke="black" points="769.53,-257.4 778.66,-252.02 768.17,-250.54 769.53,-257.4"/>
</g>
<!-- [root] meta.count&#45;boundary (EachMode fixup)&#45;&gt;[root] google_container_cluster.kubey -->
<g id="edge16" class="edge">
<title>[root] meta.count&#45;boundary (EachMode fixup)&#45;&gt;[root] google_container_cluster.kubey</title>
<path fill="none" stroke="black" d="M543.12,-288.23C560.81,-278.85 583.09,-267.04 602.16,-256.93"/>
<polygon fill="black" stroke="black" points="604.03,-259.89 611.22,-252.12 600.75,-253.71 604.03,-259.89"/>
</g>
<!-- [root] provider.aws (close) -->
<g id="node14" class="node">
<title>[root] provider.aws (close)</title>
<ellipse fill="none" stroke="black" cx="212.5" cy="-306" rx="104.78" ry="18"/>
<text text-anchor="middle" x="212.5" y="-302.3" font-family="Times,serif" font-size="14.00">[root] provider.aws (close)</text>
</g>
<!-- [root] provider.aws (close)&#45;&gt;[root] aws_instance.secondserver -->
<g id="edge17" class="edge">
<title>[root] provider.aws (close)&#45;&gt;[root] aws_instance.secondserver</title>
<path fill="none" stroke="black" d="M182.12,-288.76C164.37,-279.28 141.74,-267.19 122.43,-256.87"/>
<polygon fill="black" stroke="black" points="124.02,-253.75 113.55,-252.12 120.72,-259.92 124.02,-253.75"/>
</g>
<!-- [root] provider.aws (close)&#45;&gt;[root] aws_security_group.subnetsecurity -->
<g id="edge18" class="edge">
<title>[root] provider.aws (close)&#45;&gt;[root] aws_security_group.subnetsecurity</title>
<path fill="none" stroke="black" d="M229.93,-288.05C238.88,-279.35 249.95,-268.59 259.77,-259.04"/>
<polygon fill="black" stroke="black" points="262.25,-261.51 266.98,-252.03 257.37,-256.49 262.25,-261.51"/>
</g>
<!-- [root] provider.aws (close)&#45;&gt;[root] aws_subnet.subnet1 -->
<g id="edge19" class="edge">
<title>[root] provider.aws (close)&#45;&gt;[root] aws_subnet.subnet1</title>
<path fill="none" stroke="black" d="M265.85,-290.41C303.7,-280.06 354.94,-266.05 396.42,-254.71"/>
<polygon fill="black" stroke="black" points="397.47,-258.05 406.2,-252.04 395.63,-251.3 397.47,-258.05"/>
</g>
<!-- [root] provider.google (close) -->
<g id="node15" class="node">
<title>[root] provider.google (close)</title>
<ellipse fill="none" stroke="black" cx="820.5" cy="-306" rx="115.08" ry="18"/>
<text text-anchor="middle" x="820.5" y="-302.3" font-family="Times,serif" font-size="14.00">[root] provider.google (close)</text>
</g>
<!-- [root] provider.google (close)&#45;&gt;[root] google_compute_instance.firstserver -->
<g id="edge20" class="edge">
<title>[root] provider.google (close)&#45;&gt;[root] google_compute_instance.firstserver</title>
<path fill="none" stroke="black" d="M831.15,-288.05C836.26,-279.92 842.5,-270 848.19,-260.94"/>
<polygon fill="black" stroke="black" points="851.28,-262.6 853.64,-252.28 845.36,-258.88 851.28,-262.6"/>
</g>
<!-- [root] provider.google (close)&#45;&gt;[root] google_container_cluster.kubey -->
<g id="edge21" class="edge">
<title>[root] provider.google (close)&#45;&gt;[root] google_container_cluster.kubey</title>
<path fill="none" stroke="black" d="M780.34,-289.12C755.34,-279.23 722.91,-266.41 695.9,-255.72"/>
<polygon fill="black" stroke="black" points="697.18,-252.47 686.6,-252.04 694.61,-258.98 697.18,-252.47"/>
</g>
<!-- [root] root -->
<g id="node16" class="node">
<title>[root] root</title>
<ellipse fill="none" stroke="black" cx="511.5" cy="-378" rx="47.39" ry="18"/>
<text text-anchor="middle" x="511.5" y="-374.3" font-family="Times,serif" font-size="14.00">[root] root</text>
</g>
<!-- [root] root&#45;&gt;[root] meta.count&#45;boundary (EachMode fixup) -->
<g id="edge22" class="edge">
<title>[root] root&#45;&gt;[root] meta.count&#45;boundary (EachMode fixup)</title>
<path fill="none" stroke="black" d="M511.5,-359.7C511.5,-351.98 511.5,-342.71 511.5,-334.11"/>
<polygon fill="black" stroke="black" points="515,-334.1 511.5,-324.1 508,-334.1 515,-334.1"/>
</g>
<!-- [root] root&#45;&gt;[root] provider.aws (close) -->
<g id="edge23" class="edge">
<title>[root] root&#45;&gt;[root] provider.aws (close)</title>
<path fill="none" stroke="black" d="M472.1,-367.78C423.76,-356.46 340.95,-337.07 281.85,-323.24"/>
<polygon fill="black" stroke="black" points="282.38,-319.77 271.85,-320.89 280.78,-326.58 282.38,-319.77"/>
</g>
<!-- [root] root&#45;&gt;[root] provider.google (close) -->
<g id="edge24" class="edge">
<title>[root] root&#45;&gt;[root] provider.google (close)</title>
<path fill="none" stroke="black" d="M551.26,-367.99C600.83,-356.76 686.48,-337.36 747.88,-323.45"/>
<polygon fill="black" stroke="black" points="748.92,-326.81 757.9,-321.18 747.37,-319.98 748.92,-326.81"/>
</g>
</g>
</svg>
